<svg xmlns="http://www.w3.org/2000/svg" xmlns:xlink="http://www.w3.org/1999/xlink" width="500" zoomAndPan="magnify" viewBox="0 0 375 374.999991" height="500" preserveAspectRatio="xMidYMid meet" version="1.0"><defs><clipPath id="75940c57f7"><path d="M 9 103 L 169 103 L 169 175 L 9 175 Z M 9 103 " clip-rule="nonzero"/></clipPath><clipPath id="b471517349"><path d="M 124.734375 -59.109375 L 385.742188 344.617188 L 189.234375 471.660156 L -71.777344 67.933594 Z M 124.734375 -59.109375 " clip-rule="nonzero"/></clipPath><clipPath id="15ae013bb7"><path d="M 124.734375 -59.109375 L 385.742188 344.617188 L 189.234375 471.660156 L -71.777344 67.933594 Z M 124.734375 -59.109375 " clip-rule="nonzero"/></clipPath><clipPath id="39043a0f84"><path d="M 15 174 L 284 174 L 284 374 L 15 374 Z M 15 174 " clip-rule="nonzero"/></clipPath><clipPath id="ecc6008457"><path d="M 124.734375 -59.109375 L 385.742188 344.617188 L 189.234375 471.660156 L -71.777344 67.933594 Z M 124.734375 -59.109375 " clip-rule="nonzero"/></clipPath><clipPath id="b276e5c43b"><path d="M 124.734375 -59.109375 L 385.742188 344.617188 L 189.234375 471.660156 L -71.777344 67.933594 Z M 124.734375 -59.109375 " clip-rule="nonzero"/></clipPath><clipPath id="f06fd6b581"><path d="M 11 2 L 192 2 L 192 105 L 11 105 Z M 11 2 " clip-rule="nonzero"/></clipPath><clipPath id="31df487f98"><path d="M 124.734375 -59.109375 L 385.742188 344.617188 L 189.234375 471.660156 L -71.777344 67.933594 Z M 124.734375 -59.109375 " clip-rule="nonzero"/></clipPath><clipPath id="a13cb0dcdd"><path d="M 124.734375 -59.109375 L 385.742188 344.617188 L 189.234375 471.660156 L -71.777344 67.933594 Z M 124.734375 -59.109375 " clip-rule="nonzero"/></clipPath><clipPath id="3b9f002c3d"><path d="M 288 310 L 366 310 L 366 374 L 288 374 Z M 288 310 " clip-rule="nonzero"/></clipPath><clipPath id="a49d574df0"><path d="M 124.734375 -59.109375 L 385.742188 344.617188 L 189.234375 471.660156 L -71.777344 67.933594 Z M 124.734375 -59.109375 " clip-rule="nonzero"/></clipPath><clipPath id="32f8a1826a"><path d="M 124.734375 -59.109375 L 385.742188 344.617188 L 189.234375 471.660156 L -71.777344 67.933594 Z M 124.734375 -59.109375 " clip-rule="nonzero"/></clipPath></defs><g clip-path="url(#75940c57f7)"><g clip-path="url(#b471517349)"><g clip-path="url(#15ae013bb7)"><path fill="#fbf5be" d="M 12.613281 156.523438 L 168.027344 174.023438 C 164.59375 156.640625 163.816406 139.136719 165.6875 121.519531 L 9.894531 103.953125 C 9.167969 121.5625 10.074219 139.082031 12.613281 156.523438 Z M 12.613281 156.523438 " fill-opacity="1" fill-rule="nonzero"/></g></g></g><g clip-path="url(#39043a0f84)"><g clip-path="url(#ecc6008457)"><g clip-path="url(#b276e5c43b)"><path fill="#fbf5be" d="M 49.175781 254.375 C 50.46875 256.375 51.769531 258.386719 53.164062 260.351562 C 101.652344 330.78125 183.992188 371.640625 271.019531 373.574219 L 283.535156 305.367188 C 278.910156 303.800781 274.355469 302.046875 269.875 300.101562 C 265.390625 298.15625 261 296.027344 256.695312 293.71875 C 252.394531 291.40625 248.195312 288.917969 244.097656 286.253906 C 240.003906 283.59375 236.023438 280.761719 232.167969 277.769531 C 228.308594 274.773438 224.578125 271.621094 220.984375 268.316406 C 217.386719 265.007812 213.9375 261.558594 210.628906 257.964844 C 207.320312 254.367188 204.167969 250.640625 201.171875 246.785156 C 198.175781 242.925781 195.347656 238.949219 192.683594 234.855469 C 192.058594 233.886719 191.4375 232.929688 190.800781 231.945312 C 183.066406 219.382812 177.015625 206.058594 172.652344 191.964844 L 15.863281 174.296875 C 18.964844 188.535156 23.316406 202.382812 28.914062 215.835938 C 34.511719 229.292969 41.265625 242.136719 49.175781 254.375 Z M 194.433594 320.941406 C 194.976562 321.078125 195.503906 321.261719 196.011719 321.5 C 196.523438 321.734375 197.003906 322.015625 197.460938 322.34375 C 197.917969 322.671875 198.339844 323.035156 198.726562 323.441406 C 199.113281 323.847656 199.457031 324.289062 199.761719 324.757812 C 200.066406 325.230469 200.324219 325.726562 200.535156 326.246094 C 200.75 326.765625 200.910156 327.300781 201.019531 327.851562 C 201.132812 328.398438 201.191406 328.957031 201.195312 329.515625 C 201.203125 330.078125 201.15625 330.632812 201.058594 331.1875 C 200.828125 332.300781 200.394531 333.328125 199.746094 334.265625 C 199.097656 335.203125 198.296875 335.972656 197.332031 336.582031 C 196.859375 336.929688 196.34375 337.195312 195.785156 337.378906 C 195.257812 337.589844 194.71875 337.765625 194.171875 337.90625 C 193.605469 337.988281 193.035156 338.011719 192.464844 337.976562 C 191.910156 337.988281 191.359375 337.9375 190.816406 337.820312 C 190.257812 337.6875 189.707031 337.527344 189.167969 337.339844 C 188.667969 337.042969 188.207031 336.8125 187.667969 336.453125 L 186.378906 335.421875 C 185.984375 334.996094 185.621094 334.542969 185.296875 334.0625 C 185.007812 333.589844 184.757812 333.097656 184.546875 332.585938 C 184.359375 331.976562 184.226562 331.453125 184.085938 330.917969 C 183.945312 330.378906 183.964844 329.769531 183.941406 329.257812 C 183.9375 328.679688 184.019531 328.117188 184.1875 327.5625 C 184.289062 326.996094 184.449219 326.449219 184.664062 325.914062 C 184.851562 325.382812 185.121094 324.894531 185.472656 324.453125 C 185.78125 323.964844 186.148438 323.523438 186.578125 323.132812 C 187 322.734375 187.453125 322.375 187.9375 322.046875 C 188.898438 321.429688 189.945312 321.027344 191.074219 320.835938 C 192.199219 320.640625 193.320312 320.675781 194.433594 320.941406 Z M 84.246094 244.707031 C 90.011719 252.304688 96.195312 259.546875 102.796875 266.429688 C 111.804688 275.792969 121.484375 284.402344 131.835938 292.253906 C 142.1875 300.109375 153.085938 307.109375 164.53125 313.261719 C 165.03125 313.53125 165.5 313.847656 165.9375 314.210938 C 166.375 314.574219 166.773438 314.976562 167.128906 315.414062 C 167.488281 315.855469 167.800781 316.328125 168.066406 316.828125 C 168.332031 317.332031 168.542969 317.855469 168.707031 318.398438 C 168.871094 318.941406 168.976562 319.496094 169.03125 320.0625 C 169.082031 320.625 169.082031 321.191406 169.023438 321.757812 C 168.964844 322.320312 168.851562 322.875 168.6875 323.417969 C 168.519531 323.960938 168.300781 324.480469 168.03125 324.980469 C 167.761719 325.480469 167.445312 325.949219 167.085938 326.386719 C 166.722656 326.824219 166.324219 327.222656 165.882812 327.582031 C 165.441406 327.941406 164.972656 328.253906 164.46875 328.519531 C 163.96875 328.785156 163.445312 329 162.902344 329.164062 C 162.359375 329.324219 161.804688 329.433594 161.238281 329.488281 C 160.671875 329.542969 160.109375 329.542969 159.542969 329.484375 C 158.980469 329.425781 158.425781 329.316406 157.882812 329.148438 C 157.339844 328.984375 156.816406 328.765625 156.316406 328.496094 C 144.078125 321.921875 132.421875 314.4375 121.351562 306.046875 C 110.28125 297.652344 99.925781 288.449219 90.292969 278.441406 C 83.230469 271.078125 76.617188 263.328125 70.453125 255.199219 L 70.097656 254.648438 C 69.769531 254.183594 69.496094 253.6875 69.265625 253.167969 C 69.039062 252.648438 68.863281 252.109375 68.742188 251.554688 C 68.617188 251 68.550781 250.441406 68.539062 249.871094 C 68.527344 249.304688 68.570312 248.742188 68.667969 248.179688 C 68.769531 247.621094 68.921875 247.078125 69.128906 246.546875 C 69.332031 246.019531 69.589844 245.515625 69.894531 245.035156 C 70.199219 244.554688 70.550781 244.113281 70.941406 243.703125 C 71.335938 243.292969 71.765625 242.921875 72.230469 242.597656 C 72.695312 242.269531 73.1875 241.992188 73.707031 241.765625 C 74.226562 241.535156 74.765625 241.359375 75.320312 241.238281 C 75.875 241.113281 76.433594 241.046875 77.003906 241.035156 C 77.570312 241.019531 78.136719 241.0625 78.695312 241.160156 C 79.253906 241.261719 79.796875 241.410156 80.328125 241.617188 C 80.859375 241.824219 81.363281 242.078125 81.84375 242.382812 C 82.320312 242.6875 82.765625 243.035156 83.175781 243.429688 C 83.589844 243.820312 83.957031 244.25 84.285156 244.714844 Z M 84.246094 244.707031 " fill-opacity="1" fill-rule="nonzero"/></g></g></g><g clip-path="url(#f06fd6b581)"><g clip-path="url(#31df487f98)"><g clip-path="url(#a13cb0dcdd)"><path fill="#fbf5be" d="M 11.042969 86.671875 L 168.261719 104.398438 C 170.363281 94.171875 173.339844 84.210938 177.195312 74.507812 C 181.050781 64.808594 185.722656 55.519531 191.214844 46.640625 L 30.453125 2.269531 C 20.246094 29.542969 13.777344 57.679688 11.042969 86.671875 Z M 11.042969 86.671875 " fill-opacity="1" fill-rule="nonzero"/></g></g></g><g clip-path="url(#3b9f002c3d)"><g clip-path="url(#a49d574df0)"><g clip-path="url(#32f8a1826a)"><path fill="#fbf5be" d="M 359.089844 362.03125 L 365.199219 313.367188 C 354.371094 314.847656 343.492188 315.320312 332.574219 314.792969 C 321.65625 314.261719 310.875 312.734375 300.238281 310.210938 L 288.679688 373.328125 C 312.613281 372.453125 336.082031 368.683594 359.089844 362.03125 Z M 359.089844 362.03125 " fill-opacity="1" fill-rule="nonzero"/></g></g></g></svg>