<svg xmlns="http://www.w3.org/2000/svg" xmlns:xlink="http://www.w3.org/1999/xlink" width="500" zoomAndPan="magnify" viewBox="0 0 375 374.999991" height="500" preserveAspectRatio="xMidYMid meet" version="1.0"><path fill="#fbf5be" d="M 328.058594 372.886719 C 326.746094 372.355469 324.589844 370.085938 323.265625 367.839844 C 320.386719 362.964844 315.640625 362.265625 312.144531 366.195312 C 306.453125 372.589844 293.992188 374.566406 282.410156 370.917969 C 274.671875 368.476562 272.792969 366.335938 259.007812 344.304688 C 250.667969 330.980469 246.339844 325.273438 240.867188 320.394531 C 236.3125 316.339844 232.316406 311.441406 229.964844 307.035156 C 225.988281 299.566406 224.132812 298.613281 221.335938 302.601562 C 219.246094 305.589844 219.058594 310.222656 220.871094 314.203125 C 221.878906 316.414062 221.847656 317.464844 220.734375 318.804688 C 219.546875 320.238281 216.035156 320.542969 200.949219 320.527344 C 190.859375 320.519531 181.847656 320.03125 180.921875 319.445312 C 179.511719 318.550781 179.75 317.839844 182.402344 315.070312 C 185.074219 312.285156 186.765625 311.652344 193.136719 311.058594 C 200.644531 310.359375 200.765625 310.289062 208.429688 302.683594 C 216.792969 294.386719 218.332031 289.886719 214.109375 286.066406 C 211.164062 283.398438 181.28125 270.507812 178.046875 270.507812 C 176.140625 270.507812 174.292969 271.960938 171.886719 275.339844 C 166.914062 282.328125 164.652344 284.78125 161.730469 286.34375 C 157.679688 288.511719 150.199219 300.902344 150.199219 305.445312 C 150.199219 310.785156 152.011719 313.722656 155.316406 313.722656 C 158.03125 313.722656 161.378906 317.707031 159.902344 319.179688 C 158.953125 320.128906 118.265625 320.757812 116.082031 319.855469 C 113.984375 318.988281 120.820312 316.210938 125.371094 316.082031 C 130.339844 315.941406 131.976562 314.824219 134.441406 309.886719 C 135.726562 307.304688 139.757812 302.121094 143.394531 298.371094 C 150.722656 290.804688 154.746094 284.367188 154.746094 280.203125 C 154.746094 275.757812 146.964844 261.421875 140.257812 253.503906 C 136.839844 249.46875 129.753906 239.652344 124.511719 231.691406 C 119.273438 223.730469 114.453125 216.886719 113.800781 216.484375 C 111.691406 215.183594 106.28125 203.09375 103.109375 192.609375 C 101.410156 186.980469 98.515625 178.277344 96.679688 173.273438 C 92.820312 162.769531 89.605469 152.0625 87.621094 143.140625 C 86.855469 139.699219 85.777344 135.386719 85.226562 133.558594 C 82.183594 123.5 82.988281 108.34375 87.035156 99.480469 C 89.328125 94.457031 91.925781 82.449219 92.628906 73.609375 C 93.144531 67.105469 92.921875 65.78125 91.007812 64.050781 C 89.789062 62.949219 88.789062 61.433594 88.789062 60.6875 C 88.789062 59.941406 88 57.75 87.035156 55.816406 C 84.199219 50.132812 77.390625 47.199219 60.359375 44.328125 C 51.964844 42.914062 43.351562 41.027344 41.21875 40.136719 C 37.886719 38.746094 37.546875 38.261719 38.808594 36.742188 C 42.238281 32.609375 56.390625 26.378906 67.183594 24.25 C 76.09375 22.496094 81.414062 19.925781 86.078125 15.125 C 88.730469 12.398438 92.339844 9.839844 94.109375 9.4375 C 95.875 9.03125 101.667969 7.257812 106.984375 5.492188 C 119.535156 1.328125 125.855469 0.476562 132.085938 2.113281 C 139.71875 4.117188 155.613281 15.132812 161.863281 22.75 C 164.835938 26.375 172.101562 33.476562 178.007812 38.527344 C 188.460938 47.46875 194.535156 54.5 198.457031 62.195312 C 199.859375 64.949219 202.28125 66.871094 207.417969 69.300781 C 211.285156 71.132812 215.21875 72.632812 216.15625 72.640625 C 219.203125 72.660156 229.363281 79.191406 234.789062 84.621094 C 245.539062 95.367188 257.535156 115.816406 264.429688 135.140625 C 266.097656 139.808594 267.863281 144.15625 268.355469 144.804688 C 269.558594 146.382812 271.609375 154.894531 272.472656 161.902344 C 272.859375 165.03125 274.132812 170.402344 275.300781 173.84375 C 276.472656 177.285156 278.792969 186.238281 280.460938 193.746094 C 282.125 201.25 284.714844 211.390625 286.214844 216.277344 C 287.714844 221.164062 288.941406 226.289062 288.941406 227.671875 C 288.941406 231.660156 296.601562 257.21875 300.074219 264.824219 C 301.359375 267.636719 304.28125 275.511719 306.570312 282.320312 C 308.976562 289.484375 312.996094 298.351562 316.117188 303.359375 C 319.082031 308.121094 322.566406 314.320312 323.859375 317.132812 C 327.738281 325.554688 332.152344 335.582031 332.152344 335.957031 C 332.152344 336.148438 331.003906 336.472656 329.59375 336.671875 C 327.332031 336.992188 327.078125 337.59375 327.398438 341.875 C 327.597656 344.539062 329.527344 350.542969 331.6875 355.214844 C 336.457031 365.542969 337.46875 369.996094 335.566406 372.285156 C 334.003906 374.171875 331.695312 374.355469 328.058594 372.886719 Z M 328.058594 372.886719 " fill-opacity="1" fill-rule="nonzero"/></svg>