<svg xmlns="http://www.w3.org/2000/svg" xmlns:xlink="http://www.w3.org/1999/xlink" width="500" zoomAndPan="magnify" viewBox="0 0 375 374.999991" height="500" preserveAspectRatio="xMidYMid meet" version="1.0"><defs><clipPath id="c1c7927d45"><path d="M 0.191406 281.257812 L 374.808594 281.257812 L 374.808594 358.367188 L 0.191406 358.367188 Z M 0.191406 281.257812 " clip-rule="nonzero"/></clipPath><clipPath id="e49b3042fb"><path d="M 36 16.640625 L 327 16.640625 L 327 304 L 36 304 Z M 36 16.640625 " clip-rule="nonzero"/></clipPath></defs><g clip-path="url(#c1c7927d45)"><path fill="#fbf5be" d="M 358.871094 289.140625 C 351.101562 293.953125 372.964844 289.570312 374.328125 291.9375 C 378.117188 298.496094 358.25 298.675781 352.058594 299.289062 C 347.675781 299.726562 342.265625 301.265625 330.558594 306.140625 C 315.25 312.511719 304.902344 315.351562 288.140625 316.457031 C 271.707031 317.539062 254.554688 317.878906 238.214844 318.96875 C 232.394531 319.355469 229.988281 320.890625 238.230469 321.484375 C 240.589844 321.660156 242.957031 321.859375 245.304688 322.101562 C 252.332031 322.820312 259.226562 323.902344 265.46875 325.652344 C 271.3125 327.296875 272.558594 329.933594 271.792969 332.550781 C 270.578125 336.714844 271.503906 334.886719 274.390625 338.558594 C 276.3125 340.996094 273.933594 343.441406 265.445312 342.417969 C 258.445312 341.574219 250.632812 339.578125 244.253906 339.203125 C 230.699219 338.390625 217.742188 339.898438 203.835938 339.339844 C 187.429688 338.675781 159.742188 333.003906 142.320312 334.703125 C 133.417969 335.570312 137.535156 337.898438 143.667969 339.089844 C 170.105469 344.226562 221.023438 340.066406 244.050781 346.5 C 252.714844 348.921875 253.273438 348.542969 256.851562 352.796875 C 263.394531 360.585938 248.441406 358.386719 241.476562 356.925781 C 237.128906 356.015625 231.226562 353.683594 227.671875 353.417969 C 219.507812 352.8125 212.53125 350.753906 204.957031 350.40625 C 200.824219 350.214844 195.707031 349.921875 191.257812 349.355469 C 185.484375 348.632812 177.316406 350.308594 172.441406 349.136719 C 165.289062 347.425781 167.886719 346.535156 155.839844 345.421875 C 145.535156 344.464844 134.300781 343.65625 128.289062 339.003906 C 123.730469 335.46875 125.328125 333.332031 128.417969 331.859375 C 133.535156 329.417969 128.367188 328.90625 125.492188 328.628906 C 113.578125 327.472656 96.449219 325.652344 97.320312 320.1875 C 98.246094 314.382812 120.792969 316.984375 119.757812 312.957031 C 118.53125 308.21875 52.320312 309.738281 52.210938 309.726562 L 10.238281 306.816406 C 3.207031 305.703125 -5.984375 301.238281 5.980469 300.789062 C 10.183594 300.628906 13.847656 301.707031 13.835938 299.941406 C 14.664062 298.816406 7.210938 292.632812 15.742188 292.613281 C 28.378906 292.585938 44.40625 295.921875 48.148438 294.316406 C 53.0625 292.210938 28.820312 290.453125 27.257812 286.207031 C 25.472656 281.316406 71.707031 287.792969 86.644531 285.949219 C 107.203125 291.222656 117.398438 292.617188 134.527344 294.449219 C 160.261719 297.199219 184.46875 293.605469 208.578125 293.367188 C 227.101562 293.179688 244.882812 289.980469 261.914062 286.171875 C 282.78125 281.5 289.074219 281.566406 297.203125 281.335938 C 301.960938 281.199219 305.78125 282.417969 315.1875 282.21875 C 318.707031 282.140625 324.558594 281.667969 327.902344 281.921875 C 333.75 282.371094 339.121094 282.691406 344.707031 282.65625 C 347.222656 282.640625 369.703125 282.433594 358.871094 289.140625 Z M 157.871094 311.710938 C 153.167969 311.128906 141.339844 310.046875 137.566406 312.6875 C 132.152344 316.488281 148.632812 316.070312 163.785156 315.617188 C 206.375 314.328125 171.535156 313.398438 157.871094 311.710938 Z M 191.78125 324.445312 C 206.574219 324.390625 242.757812 325.050781 259.117188 329.109375 C 262.527344 329.957031 263.355469 331.097656 259.308594 332.070312 C 237.160156 337.378906 159.15625 329.511719 129.25 323.25 C 112.503906 319.738281 124.238281 320.398438 134.308594 321.589844 C 141.914062 322.488281 147.859375 324.1875 155.347656 324.839844 C 167.285156 325.875 179.765625 324.488281 191.78125 324.445312 Z M 300.246094 297.183594 C 294.128906 299.648438 284.53125 301.851562 277.625 302.824219 C 270.976562 303.757812 259.195312 305.035156 260.90625 302.214844 C 262.761719 299.152344 294.726562 297.402344 300.246094 297.183594 Z M 282.699219 308.753906 C 297.777344 302.433594 323.746094 300.042969 337.261719 297.289062 C 329.574219 302.148438 315.195312 306.707031 305.535156 308.558594 C 293.355469 310.894531 266.855469 315.394531 282.699219 308.753906 " fill-opacity="1" fill-rule="evenodd"/></g><g clip-path="url(#e49b3042fb)"><path fill="#fbf5be" d="M 149.414062 234.921875 C 153.679688 234.921875 157.144531 238.382812 157.144531 242.65625 C 157.144531 246.921875 153.679688 250.390625 149.414062 250.390625 C 145.140625 250.390625 141.679688 246.921875 141.679688 242.65625 C 141.679688 238.382812 145.140625 234.921875 149.414062 234.921875 Z M 64.027344 96.445312 C 77.773438 88.121094 88.035156 74.070312 89.6875 69.488281 C 88.425781 77.039062 82.226562 88.921875 75.925781 92.492188 C 72.085938 94.664062 68.308594 95.847656 64.027344 96.445312 Z M 112.460938 105.765625 L 106.179688 106.414062 C 107.945312 111.910156 106.695312 117.824219 105.621094 123.488281 C 100.203125 152.023438 87.898438 185.1875 106.8125 211.234375 C 113.265625 220.132812 122.027344 226.4375 131.644531 231.332031 C 132.46875 230.035156 133.433594 228.839844 134.515625 227.757812 C 135.449219 226.820312 136.472656 225.976562 137.570312 225.230469 C 134.402344 224.488281 131.773438 222.347656 129.382812 217.332031 C 118.628906 194.746094 115.878906 169.5625 117.625 145.40625 C 120.148438 110.472656 132.132812 77.582031 142.816406 57.976562 L 133.03125 56.257812 L 134.28125 49.105469 L 201.085938 60.847656 L 201.085938 16.644531 L 208.355469 16.644531 L 208.355469 62.121094 L 300.964844 78.40625 L 308.511719 79.730469 L 307.261719 86.878906 C 305.402344 86.550781 303.691406 86.285156 302.085938 86.144531 C 296.503906 85.648438 292.269531 86.699219 288.074219 92.285156 C 278.429688 105.128906 269.019531 127.183594 267.113281 153.96875 C 265.53125 176.148438 269.171875 201.488281 282.175781 227.410156 C 287.058594 237.140625 282.410156 240.054688 272.808594 236.574219 C 258.21875 231.292969 237.8125 226.394531 213.640625 224.089844 C 211.898438 223.917969 210.136719 223.769531 208.355469 223.632812 L 208.355469 234.417969 C 212.011719 235.621094 215.292969 237.667969 217.953125 240.332031 C 221.082031 243.460938 223.363281 247.441406 224.425781 251.894531 C 227.480469 252.023438 230.535156 252.109375 233.570312 252.140625 C 234.988281 248.832031 237.023438 245.851562 239.527344 243.34375 C 244.601562 238.269531 251.609375 235.132812 259.347656 235.132812 C 267.089844 235.132812 274.101562 238.269531 279.175781 243.34375 C 280.1875 244.359375 281.125 245.449219 281.976562 246.609375 C 285.945312 245.320312 289.484375 243.777344 292.457031 241.960938 C 306.5625 233.355469 305.070312 212.605469 309.808594 203.214844 C 315.070312 192.789062 332.679688 199.175781 324.28125 213.234375 C 324.910156 206.84375 317.648438 203.273438 314.675781 208.484375 C 313.34375 210.816406 313.042969 215.433594 313.046875 219.859375 C 313.046875 227.148438 313.332031 234.101562 313.113281 241.167969 C 312.582031 258.238281 308.601562 275.625 290.972656 282.667969 C 284.355469 285.308594 276.195312 287.742188 267.851562 289.882812 C 266.773438 290.222656 265.667969 290.5 264.542969 290.710938 C 248.882812 294.5625 233.164062 297.324219 226.183594 298.398438 C 193.242188 303.472656 108.332031 311.082031 79.203125 282.367188 C 64.878906 268.242188 63.089844 247.085938 66.480469 224.640625 C 69.550781 204.371094 76.839844 183.050781 82.957031 164.914062 C 86.527344 154.335938 93.449219 136.015625 93.910156 124.101562 C 94.277344 114.699219 90.316406 108.40625 79.933594 111.289062 C 84.5 111.648438 85.75 114.992188 81.339844 115.886719 C 79.683594 116.230469 75.976562 116.375 76.09375 117.90625 C 76.144531 118.625 77.082031 119.0625 78.53125 118.792969 C 77.855469 120.257812 75.472656 120.714844 74.042969 120.929688 C 70.296875 121.507812 65.351562 121.332031 63.367188 122.59375 C 60.988281 124.105469 60.894531 127.515625 61.878906 129.75 C 52.59375 127.375 50.070312 124.21875 47.871094 119.261719 C 50.546875 120.792969 54.019531 121.785156 56.804688 122.183594 C 55.273438 120.75 54.441406 117.925781 54.882812 116.023438 C 62.050781 120.484375 66.285156 114.691406 69.515625 107.722656 C 64.8125 109.628906 51.136719 104.835938 52.996094 112.804688 C 50.351562 112.277344 49.089844 111.617188 47.371094 109.289062 C 47.132812 110.9375 47.921875 112.621094 49.59375 114.144531 C 46.410156 114.15625 44.585938 113.375 43.261719 111.597656 C 42.488281 113.292969 42.652344 115.417969 42.757812 116.101562 C 37.011719 112.714844 36.871094 105.070312 36.671875 104.945312 C 44.1875 105.84375 51.449219 104.890625 56.132812 98.402344 C 70.175781 99.519531 93.75 87.714844 99.898438 73.582031 C 99.382812 79.925781 94.730469 91.386719 87.429688 95.671875 C 92.882812 94.574219 101.125 95.183594 106.542969 97.3125 C 104.722656 97.246094 103.25 99.589844 105.074219 100.660156 C 107.363281 102.007812 109.914062 103.75 112.460938 105.765625 Z M 231.855469 257.675781 C 229.597656 257.628906 227.339844 257.554688 225.085938 257.46875 L 225.085938 257.546875 C 225.085938 264.269531 222.355469 270.355469 217.953125 274.757812 C 215.882812 276.832031 213.445312 278.523438 210.742188 279.75 C 220.023438 281.523438 229.621094 282.777344 239.96875 283.417969 L 239.527344 282.988281 C 234.453125 277.917969 231.316406 270.910156 231.316406 263.167969 C 231.316406 261.289062 231.5 259.453125 231.855469 257.675781 Z M 282.65625 278.753906 C 298.097656 272.542969 308.835938 260.238281 305.765625 239.410156 C 299.277344 245.683594 292.746094 249.859375 285.332031 252.613281 C 286.660156 255.871094 287.386719 259.433594 287.386719 263.167969 C 287.386719 268.933594 285.644531 274.292969 282.65625 278.753906 Z M 275.066406 247.453125 C 271.042969 243.433594 265.492188 240.945312 259.347656 240.945312 C 253.210938 240.945312 247.660156 243.433594 243.636719 247.453125 C 239.617188 251.472656 237.128906 257.027344 237.128906 263.167969 C 237.128906 269.304688 239.613281 274.859375 243.636719 278.882812 C 247.660156 282.902344 253.210938 285.386719 259.347656 285.386719 L 259.347656 285.398438 C 265.476562 285.398438 271.039062 282.90625 275.066406 278.882812 C 279.085938 274.859375 281.574219 269.304688 281.574219 263.167969 C 281.574219 257.027344 279.085938 251.472656 275.066406 247.453125 Z M 201.085938 233.207031 L 201.085938 223.152344 C 187.796875 222.4375 173.585938 222.539062 158.75 223.765625 C 160.816406 224.792969 162.691406 226.140625 164.308594 227.757812 C 168.113281 231.566406 170.46875 236.832031 170.46875 242.65625 L 170.480469 242.65625 C 170.480469 243.453125 170.429688 244.246094 170.34375 245.023438 C 173.066406 245.636719 175.921875 246.226562 178.898438 246.785156 C 180.082031 244.386719 181.652344 242.207031 183.527344 240.332031 C 187.929688 235.925781 194.019531 233.203125 200.738281 233.203125 Z M 177.035156 251.984375 C 174.355469 251.472656 171.683594 250.925781 169.03125 250.339844 C 167.964844 253.066406 166.339844 255.515625 164.308594 257.546875 C 161.660156 260.199219 158.300781 262.144531 154.546875 263.089844 C 158.789062 264.722656 163.191406 266.300781 167.757812 267.863281 C 172.367188 269.441406 176.890625 270.929688 181.378906 272.308594 C 178.253906 268.214844 176.394531 263.097656 176.394531 257.546875 C 176.394531 255.632812 176.617188 253.769531 177.035156 251.984375 Z M 213.84375 244.441406 C 210.492188 241.089844 205.859375 239.015625 200.738281 239.015625 C 195.621094 239.015625 190.984375 241.089844 187.632812 244.441406 C 184.28125 247.800781 182.207031 252.429688 182.207031 257.546875 C 182.207031 262.664062 184.28125 267.300781 187.632812 270.652344 C 190.984375 274.003906 195.621094 276.082031 200.738281 276.082031 C 205.859375 276.082031 210.492188 274.003906 213.84375 270.652344 C 217.195312 267.300781 219.273438 262.664062 219.273438 257.546875 C 219.273438 252.429688 217.195312 247.800781 213.84375 244.441406 Z M 205.125 68.925781 C 196.316406 67.601562 190.8125 68.386719 186.273438 78.171875 C 177.402344 97.292969 168.746094 124.542969 166.667969 153.277344 C 165.609375 167.898438 166.261719 182.886719 169.476562 197.339844 C 171.945312 208.4375 175.433594 215.359375 187.707031 215.480469 C 196.394531 215.570312 204.765625 216.015625 212.75 216.734375 C 207.253906 198.675781 205.957031 179.59375 207.289062 161.117188 C 209.820312 126.210938 221.78125 93.34375 232.457031 73.730469 L 219.792969 71.503906 Z M 167.457031 215.917969 C 159.804688 195.691406 157.910156 173.832031 159.429688 152.765625 C 161.949219 117.910156 173.921875 84.9375 184.589844 65.316406 L 165.878906 62.027344 C 155.542969 60.210938 149.429688 60.109375 144.464844 70.816406 C 135.597656 89.933594 126.941406 117.179688 124.859375 145.917969 C 123.351562 166.78125 125.328125 188.390625 133.253906 208.128906 C 137.570312 218.871094 143.660156 217.917969 154.085938 216.914062 C 158.597656 216.480469 163.058594 216.152344 167.457031 215.917969 Z M 252.25 77.214844 C 243.863281 76.035156 238.546875 77.011719 234.132812 86.527344 C 225.261719 105.644531 216.609375 132.894531 214.527344 161.628906 C 213.605469 174.425781 213.988281 187.503906 216.257812 200.253906 C 218.820312 214.695312 221.175781 217.25 235.5 219.664062 C 246.59375 221.535156 256.605469 223.902344 265.269531 226.484375 C 274.734375 229.308594 273.195312 225.710938 271.007812 220.460938 C 261.160156 196.816406 258.421875 173.875 259.875 153.457031 C 261.792969 126.597656 271.0625 103.996094 281 89.828125 C 285.144531 83.914062 283.222656 82.652344 277.539062 81.65625 Z M 129.046875 237.230469 C 121.566406 233.617188 115.058594 229.453125 110.003906 224.707031 C 94.007812 209.667969 90.507812 192.617188 91.910156 166.46875 C 77.464844 191.847656 87.679688 213.980469 104.820312 232.320312 C 112.335938 240.355469 120.890625 246.707031 130.582031 252.113281 C 129.148438 249.269531 128.34375 246.054688 128.34375 242.65625 C 128.34375 240.777344 128.589844 238.960938 129.046875 237.230469 Z M 160.199219 231.867188 C 157.4375 229.109375 153.625 227.402344 149.414062 227.402344 C 145.195312 227.402344 141.382812 229.109375 138.621094 231.867188 C 135.863281 234.625 134.15625 238.441406 134.15625 242.65625 C 134.15625 246.867188 135.863281 250.679688 138.621094 253.441406 C 141.382812 256.203125 145.195312 257.910156 149.414062 257.910156 C 153.625 257.910156 157.4375 256.203125 160.199219 253.441406 C 162.960938 250.679688 164.667969 246.867188 164.667969 242.65625 L 164.679688 242.65625 C 164.679688 238.449219 162.964844 234.632812 160.199219 231.867188 Z M 125.371094 292.339844 C 100.230469 290.679688 79.203125 282.367188 75.171875 254.769531 C 84.515625 271.355469 108.546875 287.394531 125.371094 292.339844 Z M 72.816406 225.503906 C 86.996094 257.75 130.992188 281.699219 171.1875 292.238281 C 146.546875 293.246094 124.316406 285.464844 103.976562 272.085938 C 87.261719 261.089844 72.777344 246.800781 72.816406 225.503906 Z M 77.800781 202.394531 C 87.289062 224.738281 101.636719 240.078125 121.738281 252.953125 C 153.992188 273.613281 195.898438 284.210938 232.550781 288.910156 C 195.992188 295.421875 158.667969 281.6875 130.042969 269.367188 C 125.710938 267.503906 120.738281 264.828125 115.609375 261.492188 C 95.722656 248.570312 73.558594 225.792969 77.800781 202.394531 Z M 259.347656 251.175781 C 265.972656 251.175781 271.34375 256.542969 271.34375 263.167969 C 271.34375 269.789062 265.972656 275.15625 259.347656 275.15625 C 252.730469 275.15625 247.359375 269.789062 247.359375 263.167969 C 247.359375 256.542969 252.730469 251.175781 259.347656 251.175781 Z M 200.738281 247.542969 C 206.265625 247.542969 210.742188 252.023438 210.742188 257.546875 C 210.742188 263.074219 206.265625 267.546875 200.738281 267.546875 C 195.214844 267.546875 190.734375 263.074219 190.734375 257.546875 C 190.734375 252.023438 195.214844 247.542969 200.738281 247.542969 " fill-opacity="1" fill-rule="evenodd"/></g></svg>