<svg xmlns="http://www.w3.org/2000/svg" xmlns:xlink="http://www.w3.org/1999/xlink" width="500" zoomAndPan="magnify" viewBox="0 0 375 374.999991" height="500" preserveAspectRatio="xMidYMid meet" version="1.0"><defs><clipPath id="49ab031635"><path d="M 0 0.234375 L 375 0.234375 L 375 374.484375 L 0 374.484375 Z M 0 0.234375 " clip-rule="nonzero"/></clipPath></defs><g clip-path="url(#49ab031635)"><path fill="#fbf5be" d="M 351.335938 284.097656 C 349.820312 285.703125 348.519531 288 346.65625 288.738281 C 344.578125 289.515625 343.234375 286.785156 341.585938 285.617188 C 328.542969 276.082031 311.078125 275.386719 297.253906 283.753906 C 291.707031 287.132812 291.707031 287.132812 296.253906 291.683594 C 304.53125 299.960938 312.8125 308.28125 321.132812 316.515625 C 322.386719 317.730469 322.691406 318.378906 321.21875 319.765625 C 317.707031 323.015625 317.792969 323.101562 314.414062 319.722656 C 305.964844 311.230469 297.511719 302.777344 289.0625 294.285156 C 287.847656 293.070312 287.242188 292.464844 285.8125 294.371094 C 277.015625 305.769531 275.628906 323.839844 282.777344 336.496094 C 284.335938 339.355469 286.203125 341.957031 288.410156 344.339844 C 289.453125 345.464844 289.625 346.070312 288.410156 347.285156 C 284.292969 351.273438 284.292969 351.359375 280.699219 346.808594 C 272.332031 336.105469 269.429688 323.925781 271.378906 310.535156 C 272.507812 302.777344 275.195312 295.628906 280.265625 289.515625 C 281.695312 287.828125 281.78125 286.742188 280.003906 285.097656 C 276.105469 281.5 272.375 277.683594 268.734375 273.828125 C 267.347656 272.355469 266.570312 272.179688 265.050781 273.742188 C 259.636719 279.375 254 284.792969 248.542969 290.382812 C 247.371094 291.597656 246.765625 291.554688 245.636719 290.382812 C 242.214844 286.875 242.171875 286.917969 245.59375 283.492188 C 250.578125 278.507812 255.5625 273.480469 260.589844 268.542969 C 261.671875 267.5 261.757812 266.894531 260.632812 265.8125 C 258.03125 263.382812 255.476562 260.828125 253.046875 258.226562 C 251.921875 257.011719 251.316406 257.273438 250.316406 258.3125 C 246.417969 262.300781 242.429688 266.15625 238.574219 270.1875 C 237.578125 271.226562 237.054688 271.183594 236.058594 270.1875 C 232.375 266.546875 232.332031 266.589844 235.886719 263.039062 C 239.050781 259.875 242.214844 256.667969 245.421875 253.546875 C 246.503906 252.507812 246.851562 251.855469 245.550781 250.644531 C 243.382812 248.691406 241.304688 246.613281 239.351562 244.445312 C 238.183594 243.1875 237.488281 243.363281 236.40625 244.53125 C 234.023438 247.089844 231.464844 249.429688 229.039062 251.988281 C 228.042969 253.027344 227.480469 253.285156 226.308594 252.117188 C 222.753906 248.519531 222.667969 248.5625 226.222656 245.007812 C 228.085938 243.144531 229.949219 241.195312 231.898438 239.375 C 232.894531 238.464844 232.808594 237.859375 231.898438 236.992188 C 226.222656 231.359375 220.589844 225.722656 214.996094 220.046875 C 214.132812 219.179688 213.566406 219.007812 212.527344 219.875 C 206.546875 224.8125 199.527344 227.414062 191.898438 228.367188 C 190.554688 228.539062 190.253906 229.0625 190.253906 230.273438 C 190.296875 238.335938 190.296875 246.394531 190.253906 254.457031 C 190.253906 255.84375 190.816406 256.101562 192.027344 256.101562 C 196.1875 256.058594 200.351562 256.148438 204.511719 256.058594 C 206.15625 256.015625 206.675781 256.582031 206.632812 258.183594 C 206.460938 263.902344 207.5 262.90625 201.996094 262.949219 C 198.660156 262.992188 195.324219 262.992188 192.027344 262.949219 C 190.773438 262.949219 190.253906 263.339844 190.296875 264.683594 C 190.382812 267.675781 190.382812 270.664062 190.253906 273.65625 C 190.164062 275.300781 190.902344 275.5625 192.289062 275.519531 C 198.007812 275.476562 203.773438 275.605469 209.492188 275.476562 C 211.574219 275.433594 212.222656 276.039062 212.136719 278.117188 C 212.007812 282.453125 212.136719 282.453125 207.761719 282.453125 C 202.691406 282.453125 197.621094 282.496094 192.550781 282.410156 C 190.902344 282.367188 190.164062 282.710938 190.253906 284.578125 C 190.382812 287.957031 190.382812 291.378906 190.253906 294.804688 C 190.164062 296.582031 190.816406 297.015625 192.503906 296.972656 C 200.480469 296.882812 208.453125 296.972656 216.429688 296.882812 C 218.421875 296.839844 219.203125 297.316406 219.113281 299.484375 C 218.941406 303.863281 219.070312 303.863281 214.5625 303.863281 C 207.242188 303.863281 199.917969 303.90625 192.636719 303.816406 C 190.816406 303.816406 190.207031 304.292969 190.253906 306.203125 C 190.382812 311.835938 190.382812 317.511719 190.253906 323.148438 C 190.207031 324.921875 190.859375 325.488281 192.417969 325.617188 C 201.824219 326.484375 209.925781 330.382812 217.035156 336.453125 C 227.523438 345.378906 232.894531 356.820312 233.71875 370.515625 C 233.804688 371.859375 233.371094 372.160156 232.074219 372.203125 C 226.742188 372.378906 226.699219 372.421875 225.875 367.308594 C 223.144531 350.101562 213.265625 339.09375 196.796875 333.894531 C 190.339844 331.859375 190.296875 331.988281 190.296875 338.660156 C 190.296875 349.886719 190.253906 361.109375 190.339844 372.335938 C 190.339844 374.242188 189.820312 374.71875 187.957031 374.675781 C 183.316406 374.589844 183.316406 374.675781 183.316406 370.125 C 183.316406 358.421875 183.273438 346.679688 183.359375 334.976562 C 183.359375 332.941406 182.972656 332.550781 180.890625 332.898438 C 163.382812 335.886719 152.503906 346.117188 147.566406 363.015625 C 146.828125 365.53125 146.871094 368.085938 146.523438 370.644531 C 146.4375 371.292969 146.523438 372.03125 145.527344 372.074219 C 143.707031 372.074219 141.886719 372.160156 140.066406 372.074219 C 138.808594 372.03125 139.027344 370.992188 139.070312 370.210938 C 139.894531 356.214844 145.65625 344.683594 156.449219 335.757812 C 163.46875 329.820312 172.136719 326.179688 181.28125 325.355469 C 182.929688 325.183594 183.316406 324.621094 183.316406 323.058594 C 183.230469 317.425781 183.230469 311.75 183.316406 306.113281 C 183.363281 304.25 182.753906 303.730469 180.933594 303.730469 C 173.046875 303.816406 165.160156 303.730469 157.273438 303.816406 C 155.410156 303.816406 154.671875 303.429688 154.714844 301.390625 C 154.84375 296.839844 154.714844 296.839844 159.136719 296.839844 C 166.460938 296.839844 173.785156 296.796875 181.0625 296.882812 C 182.753906 296.882812 183.40625 296.539062 183.316406 294.71875 C 183.1875 291.335938 183.144531 287.914062 183.316406 284.488281 C 183.40625 282.625 182.667969 282.28125 181.019531 282.324219 C 175.5625 282.410156 170.058594 282.28125 164.554688 282.410156 C 162.644531 282.453125 162.167969 281.847656 162.210938 280.027344 C 162.300781 275.476562 162.210938 275.476562 166.851562 275.476562 C 171.574219 275.476562 176.339844 275.34375 181.066406 275.519531 C 183.015625 275.5625 183.449219 274.910156 183.363281 273.136719 C 183.230469 270.40625 183.230469 267.632812 183.316406 264.902344 C 183.363281 263.339844 182.753906 262.90625 181.28125 262.90625 C 177.640625 262.992188 173.957031 262.863281 170.316406 262.992188 C 168.714844 263.039062 168.191406 262.5625 168.148438 260.914062 C 168.105469 256.101562 168.019531 256.101562 172.832031 256.058594 C 175.648438 256.058594 178.464844 255.972656 181.324219 256.058594 C 182.796875 256.101562 183.363281 255.757812 183.363281 254.152344 C 183.273438 246.179688 183.273438 238.203125 183.363281 230.230469 C 183.363281 228.84375 182.839844 228.367188 181.585938 228.195312 C 174.21875 227.152344 167.542969 224.421875 161.777344 219.613281 C 160.867188 218.832031 160.261719 219.007812 159.480469 219.828125 C 153.761719 225.59375 147.996094 231.359375 142.191406 237.121094 C 141.195312 238.074219 141.628906 238.550781 142.363281 239.289062 C 145.269531 242.148438 148.085938 245.097656 151.03125 247.871094 C 152.203125 248.953125 152.027344 249.515625 150.988281 250.554688 C 147.433594 254.109375 147.476562 254.109375 143.878906 250.511719 C 141.757812 248.390625 139.589844 246.308594 137.554688 244.140625 C 136.644531 243.1875 136.035156 243.1875 135.171875 244.140625 C 133.132812 246.308594 131.007812 248.476562 128.800781 250.46875 C 127.628906 251.554688 127.800781 252.203125 128.886719 253.199219 C 133.046875 257.230469 137.121094 261.433594 141.28125 265.507812 C 142.277344 266.460938 142.320312 267.023438 141.324219 268.019531 C 137.683594 271.75 137.726562 271.792969 134 268.019531 C 130.792969 264.769531 127.457031 261.652344 124.335938 258.269531 C 122.90625 256.710938 122.125 257.011719 120.910156 258.355469 C 118.703125 260.742188 116.40625 263.039062 114.019531 265.246094 C 112.679688 266.503906 112.460938 267.242188 113.933594 268.671875 C 119.570312 274.089844 124.984375 279.722656 130.578125 285.183594 C 131.832031 286.394531 132.179688 287.089844 130.707031 288.476562 C 127.28125 291.726562 127.371094 291.8125 123.945312 288.390625 C 118.960938 283.40625 113.890625 278.421875 108.992188 273.351562 C 107.738281 272.09375 107.085938 272.136719 105.875 273.394531 C 101.886719 277.511719 97.8125 281.585938 93.738281 285.574219 C 92.699219 286.613281 92.4375 287.304688 93.390625 288.648438 C 105.742188 305.855469 106.351562 323.710938 96.078125 342.042969 C 94.519531 344.773438 92.351562 347.113281 90.359375 349.539062 C 89.796875 350.234375 89.449219 350.449219 88.625 349.757812 C 84.074219 345.984375 84.03125 345.941406 87.5 341.261719 C 97.421875 328 98.375 310.96875 90.054688 296.625 C 87.367188 292.03125 87.367188 292.03125 83.683594 295.714844 C 75.191406 304.207031 66.695312 312.660156 58.289062 321.195312 C 56.988281 322.496094 56.339844 322.625 55.039062 321.195312 C 51.832031 317.730469 51.703125 317.816406 55.125 314.390625 C 63.707031 305.8125 72.289062 297.230469 80.910156 288.691406 C 81.953125 287.695312 82.210938 287.21875 80.867188 286.09375 C 67.867188 275.34375 48.625 274.609375 34.929688 283.101562 C 32.632812 284.53125 30.683594 286.265625 28.691406 288 C 27.953125 288.648438 27.5625 288.691406 26.914062 287.957031 C 25.914062 286.828125 24.875 285.789062 23.707031 284.792969 C 22.535156 283.796875 22.839844 283.101562 23.792969 282.234375 C 34.105469 272.960938 46.15625 268.886719 59.980469 270.015625 C 69.773438 270.792969 78.527344 274.261719 85.980469 280.675781 C 87.109375 281.628906 87.800781 281.890625 88.972656 280.632812 C 93.003906 276.429688 97.121094 272.3125 101.324219 268.28125 C 102.449219 267.199219 102.40625 266.632812 101.324219 265.59375 C 95.257812 259.65625 89.363281 253.589844 83.292969 247.695312 C 82.039062 246.484375 82.253906 245.875 83.339844 244.792969 C 86.804688 241.324219 86.761719 241.28125 90.273438 244.792969 C 95.558594 250.078125 100.890625 255.324219 106.089844 260.695312 C 107.304688 261.910156 107.910156 261.824219 108.992188 260.652344 C 111.335938 258.140625 113.71875 255.757812 116.230469 253.460938 C 117.574219 252.246094 117.703125 251.507812 116.316406 250.167969 C 112.113281 246.136719 108.082031 241.933594 103.921875 237.902344 C 102.710938 236.730469 102.535156 236.082031 103.878906 234.824219 C 107.390625 231.488281 107.304688 231.402344 110.8125 234.910156 C 114.324219 238.421875 117.921875 241.933594 121.386719 245.527344 C 122.386719 246.527344 122.992188 246.871094 124.117188 245.660156 C 126.113281 243.449219 128.277344 241.324219 130.445312 239.332031 C 131.574219 238.292969 131.3125 237.726562 130.359375 236.816406 C 127.542969 234.132812 124.855469 231.269531 121.996094 228.585938 C 120.738281 227.414062 120.390625 226.71875 121.867188 225.332031 C 125.289062 222.082031 125.203125 221.953125 128.625 225.378906 C 130.835938 227.628906 133.132812 229.796875 135.300781 232.09375 C 136.210938 233.046875 136.730469 233.046875 137.683594 232.09375 C 143.359375 226.375 149.039062 220.652344 154.800781 214.976562 C 155.582031 214.195312 155.710938 213.71875 154.976562 212.765625 C 150.46875 207.089844 147.609375 200.285156 146.785156 193.089844 C 146.609375 191.53125 146.132812 190.96875 144.53125 191.011719 C 136.730469 191.097656 128.929688 191.097656 121.085938 191.054688 C 119.4375 191.054688 118.960938 191.574219 119.003906 193.175781 C 119.089844 197.078125 118.960938 200.976562 119.046875 204.878906 C 119.089844 206.4375 118.746094 207.046875 117.011719 207.046875 C 112.070312 207.046875 112.070312 207.132812 112.070312 202.320312 C 112.070312 199.246094 111.984375 196.167969 112.113281 193.089844 C 112.199219 191.402344 111.59375 190.921875 109.992188 191.011719 C 107.175781 191.140625 104.355469 191.140625 101.496094 191.054688 C 99.980469 191.011719 99.503906 191.488281 99.503906 193.046875 C 99.589844 198.769531 99.460938 204.53125 99.589844 210.253906 C 99.632812 212.160156 99.027344 212.636719 97.207031 212.59375 C 92.613281 212.507812 92.613281 212.59375 92.613281 208.042969 C 92.613281 203.144531 92.570312 198.246094 92.65625 193.308594 C 92.699219 191.617188 92.308594 190.921875 90.488281 191.011719 C 87.066406 191.140625 83.683594 191.183594 80.261719 191.011719 C 78.441406 190.921875 78.09375 191.660156 78.09375 193.308594 C 78.179688 201.195312 78.050781 209.082031 78.179688 217.011719 C 78.222656 218.917969 77.746094 219.613281 75.710938 219.527344 C 71.160156 219.398438 71.160156 219.527344 71.160156 214.976562 C 71.160156 207.738281 71.117188 200.5 71.203125 193.308594 C 71.246094 191.574219 70.769531 191.011719 68.992188 191.054688 C 63.445312 191.183594 57.855469 191.269531 52.308594 191.054688 C 50.011719 190.96875 49.449219 191.921875 49.273438 193.785156 C 48.710938 200.632812 46.15625 206.785156 42.382812 212.460938 C 35.40625 222.992188 25.828125 230.015625 13.476562 233.003906 C 10.402344 233.742188 7.238281 233.957031 4.117188 234.175781 C 3.164062 234.261719 2.859375 234.089844 2.773438 233.046875 C 2.210938 227.414062 2.425781 227.199219 7.628906 226.375 C 24.746094 223.730469 35.753906 213.894531 40.996094 197.597656 C 43.078125 191.183594 42.902344 191.097656 36.1875 191.097656 C 24.960938 191.097656 13.738281 191.054688 2.511719 191.140625 C 0.476562 191.140625 0 190.492188 0.0859375 188.582031 C 0.214844 184.25 0.128906 184.207031 4.550781 184.25 C 16.339844 184.25 28.167969 184.207031 39.957031 184.335938 C 42.039062 184.335938 42.472656 183.773438 42.125 181.824219 C 39.089844 164.269531 28.992188 153.132812 11.917969 148.234375 C 9.578125 147.585938 7.152344 147.414062 4.765625 147.328125 C 3.335938 147.28125 2.6875 146.894531 2.773438 145.332031 C 3.078125 138.746094 1.386719 139.394531 8.625 140.175781 C 28.300781 142.300781 45.199219 158.074219 48.972656 177.488281 C 49.316406 179.179688 49.535156 180.914062 49.664062 182.644531 C 49.75 183.988281 50.316406 184.335938 51.527344 184.335938 C 57.507812 184.292969 63.488281 184.292969 69.46875 184.335938 C 71.117188 184.335938 71.117188 183.511719 71.117188 182.300781 C 71.074219 174.238281 71.160156 166.179688 71.074219 158.117188 C 71.03125 155.992188 71.464844 155.214844 73.761719 155.300781 C 78.050781 155.472656 78.050781 155.34375 78.050781 159.632812 C 78.050781 167.132812 78.09375 174.585938 78.007812 182.082031 C 78.007812 183.773438 78.398438 184.421875 80.21875 184.335938 C 83.640625 184.207031 87.023438 184.207031 90.445312 184.335938 C 92.308594 184.421875 92.613281 183.644531 92.613281 182.039062 C 92.527344 176.40625 92.65625 170.726562 92.527344 165.09375 C 92.484375 163.359375 93.003906 162.839844 94.734375 162.839844 C 99.460938 162.882812 99.503906 162.796875 99.503906 167.476562 C 99.503906 172.375 99.546875 177.273438 99.460938 182.214844 C 99.417969 183.730469 99.761719 184.464844 101.496094 184.378906 C 104.398438 184.25 107.304688 184.25 110.207031 184.335938 C 111.636719 184.378906 112.070312 183.859375 112.027344 182.472656 C 111.941406 178.746094 112.113281 174.976562 111.984375 171.25 C 111.941406 169.472656 112.289062 168.777344 114.28125 168.820312 C 118.960938 168.910156 118.960938 168.820312 118.960938 173.546875 C 118.960938 176.535156 119.003906 179.527344 118.917969 182.515625 C 118.875 183.945312 119.351562 184.378906 120.78125 184.378906 C 128.757812 184.335938 136.730469 184.335938 144.703125 184.378906 C 145.960938 184.378906 146.4375 184.03125 146.609375 182.734375 C 147.566406 175.277344 150.25 168.476562 155.019531 162.582031 C 155.929688 161.453125 155.667969 160.847656 154.757812 159.9375 C 149.210938 154.433594 143.664062 148.929688 138.203125 143.339844 C 137.164062 142.253906 136.601562 142.429688 135.648438 143.425781 C 132.785156 146.417969 129.753906 149.277344 126.847656 152.265625 C 125.851562 153.308594 125.289062 153.566406 124.074219 152.398438 C 120.433594 148.84375 120.390625 148.886719 123.988281 145.332031 C 126.328125 142.992188 128.667969 140.609375 131.054688 138.3125 C 131.832031 137.574219 131.917969 137.097656 131.097656 136.320312 C 128.757812 134.066406 126.460938 131.769531 124.25 129.429688 C 123.339844 128.429688 122.820312 128.863281 122.082031 129.601562 C 117.835938 133.933594 113.457031 138.136719 109.253906 142.515625 C 108.082031 143.730469 107.476562 143.640625 106.351562 142.472656 C 102.925781 139.003906 102.882812 139.046875 106.351562 135.582031 C 109.949219 131.984375 113.5 128.386719 117.140625 124.835938 C 118.136719 123.878906 118.226562 123.273438 117.183594 122.277344 C 114.542969 119.761719 111.941406 117.207031 109.425781 114.519531 C 108.386719 113.394531 107.78125 113.394531 106.695312 114.519531 C 100.933594 120.414062 95.039062 126.132812 89.320312 132.027344 C 87.976562 133.414062 87.28125 133.285156 86.070312 131.941406 C 82.90625 128.5625 82.816406 128.648438 86.15625 125.3125 C 91.398438 120.066406 96.554688 114.824219 101.886719 109.664062 C 103.011719 108.582031 102.96875 108.019531 101.886719 106.980469 C 97.8125 103.035156 93.738281 99.136719 89.925781 94.972656 C 88.367188 93.285156 87.367188 93.542969 85.894531 94.757812 C 77.402344 101.691406 67.476562 104.421875 56.730469 104.378906 C 44.59375 104.335938 34.105469 99.871094 25.136719 91.722656 C 24.3125 90.988281 24.140625 90.511719 25.050781 89.773438 C 25.179688 89.644531 25.308594 89.558594 25.394531 89.425781 C 26.609375 88.214844 27.691406 86.261719 29.167969 85.917969 C 30.769531 85.527344 31.898438 87.695312 33.285156 88.691406 C 47.324219 98.832031 62.058594 99.613281 77.269531 91.679688 C 83.339844 88.515625 83.25 88.386719 78.613281 83.75 C 70.378906 75.515625 62.191406 67.28125 53.910156 59.089844 C 52.699219 57.878906 52.570312 57.226562 53.867188 55.96875 C 57.335938 52.589844 57.292969 52.546875 60.628906 55.882812 C 69.125 64.421875 77.703125 72.914062 86.113281 81.539062 C 87.585938 83.011719 88.105469 82.710938 89.144531 81.238281 C 99.589844 66.675781 99.980469 51.679688 91.484375 36.164062 C 90.230469 33.867188 88.410156 32.046875 86.761719 30.054688 C 86.371094 29.621094 85.636719 29.1875 86.371094 28.40625 C 87.714844 27.0625 89.058594 25.675781 90.445312 24.335938 C 91.355469 23.46875 91.789062 24.464844 92.222656 24.941406 C 101.019531 34.519531 105.136719 45.828125 104.703125 58.789062 C 104.355469 69.320312 100.976562 78.765625 94.214844 86.871094 C 93.261719 87.996094 93.175781 88.605469 94.300781 89.644531 C 98.464844 93.675781 102.582031 97.792969 106.609375 101.996094 C 107.738281 103.121094 108.34375 103.25 109.558594 102.039062 C 115.234375 96.230469 121.085938 90.511719 126.761719 84.703125 C 127.976562 83.488281 128.667969 83.402344 129.882812 84.660156 C 133.175781 88.082031 133.261719 88.039062 129.882812 91.378906 C 124.726562 96.535156 119.570312 101.777344 114.324219 106.847656 C 113.109375 108.019531 113.199219 108.625 114.367188 109.753906 C 116.925781 112.136719 119.394531 114.605469 121.734375 117.164062 C 122.992188 118.550781 123.683594 118.289062 124.855469 117.078125 C 128.800781 113.003906 132.875 109.101562 136.773438 105.027344 C 137.945312 103.816406 138.59375 103.902344 139.71875 105.027344 C 143.144531 108.496094 143.1875 108.453125 139.675781 111.960938 C 136.296875 115.300781 133.003906 118.679688 129.621094 121.972656 C 128.539062 123.058594 128.191406 123.75 129.492188 124.921875 C 131.660156 126.871094 133.695312 128.949219 135.648438 131.074219 C 136.644531 132.113281 137.25 132.070312 138.203125 131.03125 C 140.804688 128.300781 143.535156 125.789062 146.089844 123.058594 C 147.21875 121.84375 147.953125 121.671875 149.253906 122.96875 C 152.589844 126.394531 152.636719 126.351562 149.253906 129.730469 C 147.175781 131.769531 145.179688 133.890625 143.058594 135.886719 C 142.105469 136.796875 141.886719 137.359375 142.972656 138.441406 C 148.605469 143.988281 154.152344 149.578125 159.699219 155.214844 C 160.566406 156.082031 161.085938 156.210938 162.125 155.386719 C 167.714844 150.835938 174.21875 148.191406 181.28125 147.109375 C 183.058594 146.847656 183.40625 146.199219 183.40625 144.597656 C 183.316406 137.011719 183.316406 129.472656 183.40625 121.886719 C 183.40625 120.152344 182.929688 119.589844 181.152344 119.632812 C 177.335938 119.761719 173.523438 119.632812 169.667969 119.71875 C 168.019531 119.761719 167.328125 119.460938 167.328125 117.554688 C 167.414062 112.828125 167.328125 112.828125 172.007812 112.785156 C 175.082031 112.785156 178.160156 112.699219 181.238281 112.785156 C 182.796875 112.828125 183.492188 112.484375 183.40625 110.75 C 183.273438 107.933594 183.230469 105.117188 183.359375 102.253906 C 183.449219 100.523438 182.753906 100.175781 181.195312 100.175781 C 175.648438 100.261719 170.058594 100.132812 164.507812 100.261719 C 162.472656 100.304688 161.777344 99.742188 161.824219 97.660156 C 161.910156 93.285156 161.824219 93.285156 166.113281 93.285156 C 171.097656 93.285156 176.082031 93.199219 181.0625 93.285156 C 182.710938 93.328125 183.449219 92.980469 183.359375 91.117188 C 183.1875 87.695312 183.1875 84.3125 183.359375 80.890625 C 183.449219 79.070312 182.710938 78.679688 181.0625 78.722656 C 173.175781 78.808594 165.289062 78.679688 157.359375 78.808594 C 155.453125 78.808594 154.757812 78.375 154.800781 76.382812 C 154.933594 71.832031 154.800781 71.832031 159.4375 71.832031 C 166.589844 71.832031 173.742188 71.746094 180.890625 71.875 C 182.929688 71.917969 183.40625 71.269531 183.316406 69.363281 C 183.1875 63.726562 183.1875 58.050781 183.316406 52.417969 C 183.359375 50.769531 182.753906 50.207031 181.28125 50.035156 C 166.371094 48.34375 155.410156 40.414062 147.304688 28.234375 C 142.753906 21.128906 140.585938 13.152344 140.371094 4.703125 C 140.371094 4.3125 140.023438 3.75 140.585938 3.617188 C 142.710938 3.273438 144.964844 3.097656 147 3.574219 C 148.429688 3.921875 147.867188 5.742188 147.953125 6.867188 C 149.429688 21.300781 156.839844 31.703125 169.40625 38.636719 C 173.132812 40.671875 177.164062 42.015625 181.367188 42.535156 C 183.230469 42.796875 183.359375 42.144531 183.359375 40.628906 C 183.316406 28.148438 183.40625 15.710938 183.273438 3.230469 C 183.230469 0.886719 183.925781 0.28125 186.179688 0.367188 C 190.339844 0.5 190.339844 0.410156 190.339844 4.617188 C 190.339844 16.359375 190.339844 28.0625 190.339844 39.761719 C 190.339844 42.925781 190.339844 42.839844 193.503906 42.492188 C 209.539062 40.800781 224.316406 26.632812 226.957031 9.859375 C 227.046875 9.296875 227.046875 8.6875 227.175781 8.125 C 227.480469 6.609375 226.65625 4.441406 227.957031 3.707031 C 229.601562 2.75 231.855469 3.402344 233.847656 3.445312 C 235.28125 3.488281 234.890625 4.703125 234.847656 5.527344 C 234.585938 15.234375 231.164062 24.550781 225.050781 32.089844 C 217.769531 41.234375 208.539062 47.304688 196.925781 49.601562 C 196.839844 49.601562 196.753906 49.644531 196.710938 49.644531 C 194.671875 49.945312 191.898438 49.382812 190.816406 50.769531 C 189.558594 52.375 190.46875 55.058594 190.425781 57.3125 C 190.382812 61.386719 190.46875 65.460938 190.382812 69.535156 C 190.339844 71.269531 190.859375 71.789062 192.636719 71.746094 C 200.78125 71.660156 208.929688 71.746094 217.078125 71.660156 C 218.984375 71.660156 219.460938 72.222656 219.417969 74.042969 C 219.332031 78.636719 219.417969 78.636719 214.824219 78.636719 C 207.414062 78.636719 200.046875 78.679688 192.636719 78.59375 C 190.902344 78.59375 190.339844 79.070312 190.425781 80.847656 C 190.554688 84.269531 190.554688 87.648438 190.425781 91.074219 C 190.382812 92.722656 190.902344 93.199219 192.546875 93.199219 C 198.269531 93.109375 204.035156 93.242188 209.753906 93.152344 C 211.53125 93.109375 211.964844 93.675781 211.964844 95.40625 C 211.921875 100.132812 211.964844 100.132812 207.242188 100.132812 C 202.34375 100.132812 197.445312 100.175781 192.546875 100.089844 C 190.902344 100.042969 190.425781 100.652344 190.46875 102.253906 C 190.597656 105.070312 190.554688 107.890625 190.46875 110.75 C 190.425781 112.265625 190.945312 112.742188 192.460938 112.742188 C 196.277344 112.65625 200.089844 112.785156 203.945312 112.699219 C 205.636719 112.65625 206.027344 113.261719 206.027344 114.867188 C 206.027344 119.632812 206.070312 119.632812 201.390625 119.632812 C 198.484375 119.632812 195.582031 119.71875 192.679688 119.632812 C 191.117188 119.589844 190.511719 119.980469 190.511719 121.714844 C 190.597656 129.425781 190.554688 137.183594 190.511719 144.898438 C 190.511719 146.242188 190.859375 146.804688 192.246094 146.9375 C 199.960938 147.757812 206.808594 150.664062 212.875 155.386719 C 213.609375 155.949219 214.085938 155.992188 214.738281 155.300781 C 220.589844 149.363281 226.4375 143.46875 232.332031 137.617188 C 233.328125 136.621094 232.460938 136.1875 231.898438 135.625 C 229.039062 132.722656 226.179688 129.816406 223.230469 127 C 222.148438 125.960938 221.800781 125.3125 223.101562 124.054688 C 226.65625 120.585938 226.570312 120.5 230.035156 123.96875 C 232.203125 126.132812 234.5 128.214844 236.535156 130.511719 C 237.707031 131.855469 238.398438 131.550781 239.441406 130.425781 C 241.304688 128.429688 243.210938 126.4375 245.246094 124.617188 C 246.546875 123.492188 246.589844 122.753906 245.289062 121.496094 C 241.21875 117.597656 237.316406 113.480469 233.242188 109.578125 C 231.898438 108.277344 231.597656 107.5 233.199219 106.113281 C 236.578125 103.078125 236.449219 102.992188 239.65625 106.15625 C 243.125 109.621094 246.675781 113.046875 250.015625 116.601562 C 251.359375 118.03125 252.09375 117.898438 253.351562 116.511719 C 255.519531 114.128906 257.816406 111.832031 260.242188 109.621094 C 261.714844 108.277344 261.890625 107.5 260.328125 105.980469 C 254.566406 100.433594 249.0625 94.714844 243.339844 89.125 C 242.039062 87.867188 242.128906 87.21875 243.382812 86.046875 C 246.851562 82.753906 246.765625 82.710938 250.144531 86.089844 C 255.257812 91.203125 260.414062 96.273438 265.441406 101.476562 C 266.570312 102.644531 267.175781 102.6875 268.347656 101.519531 C 272.246094 97.445312 276.191406 93.371094 280.351562 89.558594 C 282.039062 87.996094 281.738281 87 280.523438 85.527344 C 273.851562 77.25 271.121094 67.542969 271.078125 57.097656 C 271.035156 44.789062 275.410156 34.128906 283.644531 25.027344 C 284.425781 24.160156 284.816406 24.03125 285.769531 24.898438 C 289.929688 28.796875 289.886719 28.710938 286.632812 33.261719 C 276.625 47.214844 275.800781 61.863281 283.6875 77.03125 C 286.765625 82.96875 286.894531 82.925781 291.488281 78.332031 C 299.507812 70.359375 307.523438 62.382812 315.410156 54.324219 C 316.796875 52.9375 317.578125 52.589844 319.09375 54.195312 C 322.128906 57.53125 322.257812 57.402344 319.09375 60.5625 C 310.644531 69.015625 302.191406 77.507812 293.65625 85.917969 C 292.398438 87.171875 292.398438 87.695312 293.871094 88.777344 C 308.433594 99.351562 323.515625 100 339.160156 91.378906 C 341.371094 90.164062 343.234375 88.515625 345.054688 86.828125 C 346.007812 85.960938 346.570312 85.742188 347.652344 86.785156 C 351.902344 90.945312 351.988281 90.988281 347.351562 94.671875 C 338.25 101.863281 327.847656 105.027344 316.277344 104.550781 C 305.703125 104.117188 296.34375 100.609375 288.28125 93.761719 C 287.15625 92.808594 286.589844 92.980469 285.636719 93.933594 C 281.519531 98.136719 277.359375 102.339844 273.113281 106.414062 C 271.988281 107.5 272.03125 108.019531 273.113281 109.101562 C 279.050781 114.910156 284.859375 120.847656 290.796875 126.652344 C 292.007812 127.867188 292.09375 128.515625 290.796875 129.730469 C 287.328125 133.023438 287.371094 133.113281 284.035156 129.773438 C 278.789062 124.53125 273.546875 119.328125 268.390625 114.042969 C 267.304688 112.917969 266.65625 112.699219 265.484375 114 C 263.144531 116.601562 260.632812 119.027344 258.074219 121.410156 C 256.820312 122.582031 256.730469 123.273438 258.03125 124.53125 C 262.277344 128.605469 266.351562 132.894531 270.601562 137.011719 C 271.640625 138.007812 271.597656 138.527344 270.601562 139.523438 C 266.917969 143.164062 266.960938 143.210938 263.320312 139.523438 C 259.9375 136.101562 256.472656 132.765625 253.136719 129.253906 C 252.136719 128.214844 251.488281 127.953125 250.40625 129.167969 C 248.367188 131.378906 246.289062 133.5 244.078125 135.496094 C 242.949219 136.535156 243.210938 137.097656 244.164062 138.007812 C 247.109375 140.824219 249.929688 143.773438 252.832031 146.632812 C 253.65625 147.414062 253.785156 147.890625 252.917969 148.800781 C 249.148438 152.699219 249.191406 152.742188 245.421875 148.972656 C 243.425781 146.980469 241.390625 145.027344 239.441406 142.949219 C 238.445312 141.867188 237.835938 141.691406 236.710938 142.863281 C 231.207031 148.496094 225.570312 154.085938 219.980469 159.632812 C 219.113281 160.5 218.984375 161.0625 219.765625 162.105469 C 224.273438 167.910156 227.304688 174.367188 228.128906 181.691406 C 228.347656 183.644531 229.167969 184.164062 231.164062 184.121094 C 238.398438 183.988281 245.636719 183.988281 252.832031 184.121094 C 254.738281 184.164062 255.476562 183.6875 255.386719 181.648438 C 255.214844 177.574219 255.386719 173.503906 255.300781 169.429688 C 255.257812 168.042969 255.734375 167.609375 257.164062 167.566406 C 262.277344 167.433594 262.277344 167.390625 262.277344 172.375 C 262.277344 175.539062 262.367188 178.703125 262.234375 181.867188 C 262.148438 183.644531 262.84375 184.164062 264.53125 184.078125 C 267.261719 183.945312 270.035156 183.945312 272.765625 184.078125 C 274.457031 184.164062 274.890625 183.554688 274.890625 181.953125 C 274.804688 176.144531 274.933594 170.296875 274.804688 164.488281 C 274.761719 162.710938 275.148438 162.015625 277.101562 162.0625 C 281.695312 162.191406 281.738281 162.0625 281.738281 166.609375 C 281.738281 171.769531 281.78125 176.925781 281.695312 182.082031 C 281.695312 183.554688 282.085938 184.121094 283.644531 184.078125 C 287.113281 183.988281 290.621094 183.945312 294.132812 184.078125 C 295.996094 184.164062 296.300781 183.382812 296.300781 181.734375 C 296.210938 173.761719 296.34375 165.789062 296.210938 157.8125 C 296.167969 155.648438 296.644531 154.953125 298.941406 155.039062 C 303.234375 155.214844 303.234375 155.082031 303.234375 159.460938 C 303.234375 166.871094 303.277344 174.238281 303.191406 181.648438 C 303.148438 183.46875 303.578125 184.121094 305.53125 184.078125 C 310.773438 183.945312 316.019531 183.902344 321.21875 184.121094 C 323.820312 184.25 324.773438 183.554688 325.074219 180.871094 C 326.203125 170.078125 331.316406 161.195312 338.941406 153.738281 C 347.523438 145.332031 357.96875 141 370.015625 140.433594 C 371.488281 140.347656 371.621094 140.914062 371.621094 142.082031 C 371.75 147.628906 371.792969 147.628906 366.9375 148.148438 C 349.996094 150.054688 335.171875 163.882812 332.574219 180.175781 C 332.53125 180.261719 332.53125 180.347656 332.53125 180.4375 C 332.183594 184.726562 331.53125 184.03125 335.648438 184.03125 C 347.785156 184.078125 359.917969 184.078125 372.054688 183.988281 C 374.132812 183.988281 375 184.335938 374.871094 186.675781 C 374.695312 191.011719 374.871094 191.011719 370.578125 191.011719 C 358.445312 191.011719 346.3125 191.054688 334.175781 190.96875 C 332.398438 190.96875 332.097656 191.3125 332.269531 193.132812 C 333.917969 210.164062 349.996094 226.71875 368.757812 227.371094 C 371.1875 227.457031 371.75 228.324219 371.664062 230.621094 C 371.445312 235.128906 371.621094 235.214844 367.070312 234.738281 C 350.039062 232.960938 337.859375 224.035156 329.625 209.253906 C 326.808594 204.183594 325.335938 198.679688 324.816406 192.917969 C 324.683594 191.488281 324.339844 190.878906 322.777344 190.921875 C 316.972656 191.011719 311.164062 191.011719 305.3125 190.921875 C 303.667969 190.878906 303.191406 191.402344 303.234375 193.046875 C 303.320312 201.019531 303.234375 208.996094 303.320312 216.96875 C 303.320312 218.703125 303.101562 219.484375 301.066406 219.441406 C 296.34375 219.351562 296.300781 219.441406 296.300781 214.714844 C 296.300781 207.566406 296.210938 200.414062 296.34375 193.265625 C 296.386719 191.355469 295.777344 190.835938 293.957031 190.921875 C 290.707031 191.097656 287.457031 191.054688 284.25 190.878906 C 282.171875 190.75 281.78125 191.574219 281.824219 193.4375 C 281.910156 198.769531 281.78125 204.054688 281.910156 209.386719 C 281.953125 211.292969 281.476562 211.984375 279.441406 211.941406 C 274.890625 211.8125 274.890625 211.941406 274.933594 207.261719 C 274.976562 202.582031 274.890625 197.769531 274.933594 193.046875 C 274.976562 191.445312 274.5 190.835938 272.808594 190.878906 C 269.992188 191.011719 267.175781 190.96875 264.316406 190.878906 C 262.800781 190.835938 262.277344 191.3125 262.324219 192.832031 C 262.410156 196.472656 262.277344 200.15625 262.410156 203.796875 C 262.453125 205.484375 261.847656 205.875 260.242188 205.875 C 255.476562 205.875 255.476562 205.960938 255.476562 201.238281 C 255.476562 198.421875 255.386719 195.605469 255.476562 192.742188 C 255.519531 191.355469 255.042969 190.835938 253.613281 190.878906 C 245.898438 190.921875 238.140625 190.878906 230.425781 190.878906 C 229.300781 190.878906 228.691406 191.011719 228.519531 192.441406 C 227.609375 199.894531 224.664062 206.957031 219.980469 212.808594 C 219.070312 213.980469 219.546875 214.457031 220.285156 215.234375 C 225.875 220.828125 231.464844 226.375 237.011719 232.007812 C 238.054688 233.046875 238.660156 232.960938 239.613281 231.964844 C 242.691406 228.800781 245.855469 225.765625 248.929688 222.558594 C 249.929688 221.519531 250.492188 221.261719 251.660156 222.429688 C 255.257812 226.027344 255.300781 225.984375 251.660156 229.539062 C 249.234375 231.921875 246.851562 234.390625 244.378906 236.730469 C 243.382812 237.683594 243.339844 238.378906 244.378906 239.332031 C 246.546875 241.367188 248.714844 243.449219 250.707031 245.703125 C 251.792969 246.914062 252.441406 246.65625 253.4375 245.617188 C 257.773438 241.152344 262.277344 236.816406 266.613281 232.355469 C 267.652344 231.269531 268.214844 231.140625 269.34375 232.269531 C 272.941406 235.820312 272.984375 235.777344 269.429688 239.332031 C 265.660156 243.101562 261.933594 246.871094 258.117188 250.597656 C 257.121094 251.554688 257.035156 252.117188 258.117188 253.113281 C 260.71875 255.582031 263.277344 258.054688 265.703125 260.695312 C 266.917969 261.996094 267.566406 261.695312 268.648438 260.609375 C 274.5 254.671875 280.4375 248.867188 286.246094 242.929688 C 287.546875 241.628906 288.28125 241.324219 289.667969 242.84375 C 292.789062 246.179688 292.875 246.09375 289.582031 249.429688 C 284.292969 254.714844 279.050781 260.046875 273.675781 265.246094 C 272.246094 266.632812 272.375 267.414062 273.71875 268.714844 C 277.792969 272.613281 281.78125 276.644531 285.726562 280.675781 C 286.722656 281.671875 287.285156 281.890625 288.542969 280.890625 C 296.90625 273.828125 306.785156 270.492188 317.664062 270.316406 C 330.535156 270.316406 341.890625 274.910156 351.335938 284.097656 Z M 190.339844 195.472656 C 190.339844 204.054688 190.339844 211.984375 190.339844 219.917969 C 190.339844 220.914062 190.773438 221.214844 191.726562 221.085938 C 197.488281 220.304688 202.992188 218.097656 207.628906 214.585938 C 208.367188 214.023438 208.496094 213.546875 207.761719 212.808594 C 202.125 207.21875 196.492188 201.585938 190.339844 195.472656 Z M 190.339844 179.527344 C 196.449219 173.371094 201.996094 167.78125 207.585938 162.277344 C 208.453125 161.410156 208.195312 160.933594 207.371094 160.371094 C 202.820312 157.207031 197.621094 155.082031 192.117188 154.171875 C 190.597656 153.957031 190.25 154.605469 190.296875 155.949219 C 190.339844 159.765625 190.339844 163.578125 190.339844 167.390625 Z M 195.277344 184.164062 C 203.902344 184.164062 211.660156 184.164062 219.460938 184.164062 C 220.761719 184.164062 220.933594 183.644531 220.761719 182.472656 C 219.894531 176.796875 217.511719 171.769531 214.261719 167.089844 C 213.699219 166.265625 213.265625 166.222656 212.527344 166.914062 C 206.980469 172.503906 201.390625 178.050781 195.277344 184.164062 Z M 196.40625 191.054688 L 196.144531 191.660156 C 201.605469 197.078125 207.066406 202.539062 212.570312 207.957031 C 213.265625 208.648438 213.785156 208.734375 214.390625 207.910156 C 217.726562 203.363281 219.980469 198.074219 220.847656 192.484375 C 220.976562 191.617188 220.847656 191.054688 219.765625 191.054688 C 211.964844 191.054688 204.207031 191.054688 196.40625 191.054688 Z M 178.421875 184.164062 L 178.679688 183.554688 L 162.300781 167.304688 C 161.734375 166.742188 161.257812 166.222656 160.523438 167.175781 C 157.011719 171.8125 154.976562 177.097656 153.976562 182.777344 C 153.804688 183.6875 154.152344 184.207031 155.148438 184.164062 C 162.90625 184.164062 170.664062 184.164062 178.421875 184.164062 Z M 178.289062 191.617188 L 177.988281 191.054688 C 170.535156 191.054688 163.078125 191.097656 155.625 191.011719 C 154.066406 191.011719 153.847656 191.617188 154.066406 192.960938 C 154.933594 197.945312 156.839844 202.667969 159.613281 206.914062 C 160.695312 208.605469 161.390625 208.5625 162.6875 207.175781 C 164.941406 204.75 167.328125 202.453125 169.710938 200.109375 C 172.570312 197.292969 175.429688 194.433594 178.289062 191.617188 Z M 183.449219 195.996094 C 177.554688 201.886719 172.222656 207.304688 166.804688 212.636719 C 165.808594 213.589844 166.460938 214.023438 167.152344 214.542969 C 171.445312 217.835938 176.46875 220.003906 181.800781 220.871094 C 182.929688 221.085938 183.492188 220.957031 183.492188 219.613281 C 183.40625 212.027344 183.449219 204.402344 183.449219 195.996094 Z M 182.753906 178.527344 L 183.449219 178.097656 C 183.449219 170.511719 183.449219 162.925781 183.449219 155.34375 C 183.449219 153.785156 182.363281 154.128906 181.542969 154.304688 C 176.601562 155.34375 171.875 157.292969 167.671875 160.152344 C 166.199219 161.152344 166.371094 161.84375 167.542969 162.972656 C 170.878906 166.179688 174.128906 169.472656 177.378906 172.808594 C 179.246094 174.671875 180.976562 176.621094 182.753906 178.527344 Z M 182.753906 178.527344 " fill-opacity="1" fill-rule="nonzero"/></g></svg>