<svg xmlns="http://www.w3.org/2000/svg" xmlns:xlink="http://www.w3.org/1999/xlink" width="47" zoomAndPan="magnify" viewBox="0 0 35.25 357.749998" height="477" preserveAspectRatio="xMidYMid meet" version="1.0"><defs><clipPath id="eab9206c5b"><path d="M 0 3.605469 L 33.78125 3.605469 L 33.78125 147 L 0 147 Z M 0 3.605469 " clip-rule="nonzero"/></clipPath><clipPath id="86e0f65f02"><path d="M 1 237 L 33 237 L 33 353.902344 L 1 353.902344 Z M 1 237 " clip-rule="nonzero"/></clipPath></defs><g clip-path="url(#eab9206c5b)"><path fill="#fbf5be" d="M 18.597656 52.417969 C 19.457031 53.101562 20.230469 53.621094 20.890625 54.257812 C 24.878906 58.148438 28.851562 62.066406 32.820312 65.976562 C 33.410156 66.554688 34.125 67.066406 34.058594 68.457031 C 32.898438 69.910156 31.609375 71.707031 30.128906 73.332031 C 26.8125 76.976562 23.441406 80.566406 20.019531 84.109375 C 18.765625 85.402344 18.28125 86.773438 18.289062 88.585938 C 18.371094 99.078125 18.382812 109.578125 18.300781 120.070312 C 18.285156 121.90625 18.878906 123.257812 20.113281 124.511719 C 22.328125 126.761719 24.480469 129.074219 26.636719 131.386719 C 27.183594 131.976562 27.621094 132.65625 28.226562 133.4375 C 27.546875 133.859375 27.101562 134.132812 26.488281 134.519531 C 23.738281 132.046875 21.632812 128.960938 18.480469 126.269531 C 17.972656 133.125 18.652344 139.589844 18.25 145.972656 C 17.222656 146.648438 16.367188 146.53125 15.398438 146.089844 C 14.835938 143.695312 15.242188 141.28125 15.222656 138.898438 C 15.179688 134.074219 15.242188 129.242188 15.355469 124.417969 C 15.382812 123.066406 14.804688 122.15625 13.953125 121.238281 C 10.097656 117.082031 6.277344 112.898438 2.460938 108.703125 C 1.652344 107.8125 0.871094 106.878906 0.203125 105.878906 C -0.0195312 105.539062 0.167969 104.9375 0.167969 104.445312 C 1.566406 104.328125 2.160156 105.269531 2.839844 105.976562 C 6.523438 109.78125 10.167969 113.628906 13.828125 117.457031 C 14.132812 117.773438 14.453125 118.074219 14.992188 118.601562 C 15.558594 115.894531 15.777344 113.757812 13.746094 111.695312 C 10.816406 108.722656 8.1875 105.457031 5.402344 102.335938 C 4.429688 101.246094 3.386719 100.21875 2.191406 98.964844 C 2.859375 98.136719 3.496094 97.246094 4.234375 96.464844 C 7.421875 93.085938 10.601562 89.707031 13.875 86.410156 C 15.082031 85.199219 15.53125 83.933594 15.53125 82.210938 C 15.523438 69.476562 15.613281 56.746094 15.675781 44.011719 C 15.6875 41.601562 15.675781 39.1875 15.675781 36.707031 C 12.917969 34.195312 10.210938 31.660156 7.429688 29.21875 C 4.554688 26.691406 4.523438 26.730469 3.214844 23.527344 C 5.199219 20.164062 7.53125 16.820312 9.75 13.417969 C 11.921875 10.097656 14.019531 6.722656 16.875 3.863281 C 17.867188 3.863281 18.617188 4.359375 19.175781 5.152344 C 23.304688 10.996094 27.421875 16.84375 31.535156 22.699219 C 31.742188 22.992188 31.863281 23.347656 32.03125 23.683594 C 31.699219 24.96875 30.75 25.761719 29.894531 26.574219 C 27.066406 29.265625 24.183594 31.894531 21.320312 34.546875 C 20.566406 35.242188 19.726562 35.855469 19.074219 36.628906 C 18.625 37.160156 18.167969 37.902344 18.164062 38.550781 C 18.136719 41.613281 18.265625 44.675781 18.355469 47.738281 C 18.355469 47.890625 18.53125 48.039062 18.699219 48.316406 C 19.785156 47.960938 20.460938 47.050781 21.234375 46.304688 C 23.632812 43.972656 25.984375 41.589844 28.398438 39.277344 C 29.164062 38.550781 29.878906 37.664062 31.277344 37.441406 C 31.105469 38.710938 30.351562 39.40625 29.699219 40.125 C 27.398438 42.675781 25.042969 45.1875 22.730469 47.730469 C 21.433594 49.164062 20.167969 50.628906 18.597656 52.40625 Z M 31.179688 69.070312 C 26.886719 64.414062 22.839844 60.019531 18.660156 55.480469 C 18.097656 58.3125 18.207031 79.171875 18.808594 81.421875 C 22.953125 77.289062 26.988281 73.257812 31.179688 69.070312 Z M 29.484375 24.210938 C 25.765625 18.695312 22.117188 13.285156 18.421875 7.804688 C 18.199219 8.125 18.023438 8.253906 18.023438 8.386719 C 18.039062 16.269531 18.070312 24.15625 18.121094 32.039062 C 18.121094 32.433594 18.355469 32.828125 18.5625 33.472656 C 22.292969 30.308594 25.804688 27.328125 29.480469 24.207031 Z M 5.203125 24.519531 C 7.15625 26.144531 8.742188 27.566406 10.4375 28.847656 C 12.078125 30.085938 13.332031 31.882812 15.703125 32.71875 C 15.703125 30.414062 15.675781 28.382812 15.703125 26.351562 C 15.785156 20.785156 15.894531 15.222656 15.972656 9.65625 C 15.976562 9.210938 15.785156 8.761719 15.585938 7.875 C 11.996094 13.625 8.671875 18.953125 5.199219 24.519531 Z M 15.175781 108.363281 C 15.261719 108.144531 15.4375 107.898438 15.4375 107.65625 C 15.449219 101.453125 15.449219 95.242188 15.429688 89.035156 C 15.429688 88.769531 15.226562 88.503906 15.007812 87.960938 C 13.199219 90.011719 11.582031 91.789062 10.046875 93.625 C 8.542969 95.425781 6.578125 96.871094 5.535156 99.09375 C 8.625 102.246094 11.597656 105.285156 14.589844 108.308594 C 14.683594 108.398438 14.929688 108.34375 15.175781 108.359375 Z M 15.175781 108.363281 " fill-opacity="1" fill-rule="nonzero"/></g><g clip-path="url(#86e0f65f02)"><path fill="#fbf5be" d="M 15.050781 320.777344 L 15.050781 315.925781 C 12.535156 313.179688 9.382812 311.007812 6.9375 307.671875 C 9.300781 307.085938 10.007812 308.726562 11.117188 309.484375 C 12.324219 310.308594 13.410156 311.3125 14.589844 312.273438 C 15.3125 310.332031 15.4375 307.332031 15.035156 302.542969 C 10.527344 297.8125 5.851562 293.195312 1.640625 288.320312 C 2.339844 285.878906 3.679688 284.179688 5.363281 282.65625 C 8.042969 280.21875 10.582031 277.617188 13.300781 275.226562 C 14.828125 273.886719 15.492188 272.425781 15.449219 270.378906 C 15.347656 265.644531 15.511719 260.894531 15.445312 256.15625 C 15.394531 252.636719 15.101562 249.117188 15.015625 245.597656 C 14.953125 243.105469 15.058594 240.605469 15.085938 237.945312 C 16.023438 237.746094 16.796875 237.582031 17.570312 237.417969 C 17.761719 237.8125 17.988281 238.050781 17.988281 238.292969 C 18.015625 240.425781 18.003906 242.558594 18.003906 244.667969 C 22.953125 250.007812 27.683594 255.339844 32.882812 260.0625 C 32.890625 261.453125 31.925781 262 31.199219 262.664062 C 27.167969 266.378906 23.117188 270.074219 19.042969 273.746094 C 18.488281 274.242188 17.792969 274.582031 17.46875 274.796875 C 17.625 288.601562 17.785156 301.785156 17.9375 315.210938 C 19.273438 316.425781 20.691406 317.746094 22.136719 319.035156 C 24.777344 321.386719 27.4375 323.710938 30.078125 326.054688 C 30.566406 326.484375 31.039062 326.9375 31.445312 327.441406 C 31.914062 328.027344 31.882812 328.632812 31.304688 329.160156 C 30.195312 329.652344 29.535156 328.871094 28.859375 328.277344 C 26.839844 326.492188 24.859375 324.664062 22.859375 322.859375 C 21.367188 321.511719 19.917969 320.117188 18.03125 318.722656 L 18.03125 321.890625 C 22.226562 326.375 26.894531 330.363281 30.980469 335.179688 C 30.421875 336.1875 30.027344 337.121094 29.4375 337.910156 C 26.445312 341.941406 23.421875 345.949219 20.371094 349.933594 C 19.757812 350.738281 19.046875 351.503906 18.253906 352.132812 C 16.679688 353.382812 15.734375 353.320312 14.390625 351.871094 C 13.261719 350.648438 12.183594 349.359375 11.210938 348.011719 C 8.386719 344.097656 5.621094 340.140625 2.851562 336.195312 C 2.589844 335.824219 2.394531 335.410156 2.0625 334.824219 C 3.832031 332.207031 6.179688 330.097656 8.34375 327.835938 C 10.527344 325.554688 12.699219 323.261719 15.0625 320.777344 Z M 17.402344 270.703125 C 19.984375 269.15625 28.109375 261.6875 29.429688 259.804688 C 27.253906 256.992188 20.167969 250.292969 18.433594 249.433594 C 16.644531 256.332031 17.492188 263.316406 17.402344 270.707031 Z M 14.75 298.957031 C 15.339844 296.667969 15.40625 279.921875 14.828125 277.5625 C 11.128906 280.761719 7.519531 283.878906 3.941406 286.976562 C 4.691406 288.34375 10.824219 295.710938 12.722656 297.476562 C 13.3125 298.023438 14.027344 298.4375 14.753906 298.960938 Z M 18.566406 325.929688 C 18.371094 325.96875 18.171875 326.011719 17.980469 326.050781 C 17.980469 328.429688 17.980469 330.804688 17.980469 333.183594 C 17.980469 335.585938 17.90625 337.996094 17.988281 340.402344 C 18.070312 342.734375 17.769531 345.113281 18.566406 347.914062 C 21.484375 343.457031 24.507812 339.648438 26.902344 335.453125 C 26.578125 334.964844 26.410156 334.625 26.167969 334.359375 C 23.640625 331.539062 21.105469 328.738281 18.570312 325.929688 Z M 5.5625 334.308594 C 7.179688 336.550781 8.640625 338.671875 10.203125 340.722656 C 11.722656 342.71875 12.816406 345.058594 14.941406 346.996094 C 15.027344 346.074219 15.117188 345.535156 15.117188 344.992188 C 15.082031 338.867188 15.03125 332.742188 14.980469 326.625 C 14.980469 326.546875 14.925781 326.445312 14.863281 326.394531 C 14.796875 326.335938 14.6875 326.332031 14.324219 326.21875 C 11.527344 328.808594 8.621094 331.488281 5.566406 334.3125 Z M 5.5625 334.308594 " fill-opacity="1" fill-rule="nonzero"/></g><path fill="#fbf5be" d="M 2.523438 191.0625 C 3.886719 191.09375 4.542969 191.933594 5.253906 192.613281 C 7.878906 195.109375 10.472656 197.636719 13.09375 200.140625 C 13.605469 200.628906 14.183594 201.050781 14.863281 201.609375 C 15.554688 199.230469 15.082031 197.511719 13.558594 195.8125 C 10.152344 192.011719 6.910156 188.054688 3.628906 184.144531 C 3.101562 183.515625 2.679688 182.796875 2.082031 181.929688 C 2.710938 181.078125 3.242188 180.230469 3.886719 179.492188 C 7.304688 175.570312 10.75 171.679688 14.1875 167.78125 C 14.898438 166.972656 15.160156 166.050781 15.144531 164.964844 C 15.109375 162.367188 15.160156 159.765625 15.195312 157.167969 C 15.207031 156.4375 15.28125 155.710938 15.339844 154.769531 C 16.1875 154.640625 16.949219 154.523438 17.6875 154.410156 C 17.933594 154.820312 18.179688 155.050781 18.1875 155.28125 C 18.261719 157.503906 18.300781 159.730469 18.328125 161.957031 C 18.34375 163.25 18.328125 164.539062 18.328125 165.738281 C 23.175781 170.460938 27.984375 174.941406 32.453125 179.972656 C 31.332031 181.640625 30.386719 183.226562 29.269531 184.683594 C 26.046875 188.882812 22.804688 193.0625 19.472656 197.175781 C 18.402344 198.496094 17.855469 199.832031 18.058594 201.511719 C 18.136719 202.148438 18.082031 202.808594 18.039062 203.460938 C 17.988281 204.359375 18.304688 205.085938 18.941406 205.707031 C 19.867188 206.617188 20.683594 207.675781 21.722656 208.429688 C 24.855469 210.6875 27.074219 213.824219 29.726562 216.542969 C 30.023438 216.84375 30.109375 217.355469 30.351562 217.894531 C 29.863281 218.328125 29.417969 218.730469 28.804688 219.273438 C 25.011719 216.308594 21.738281 212.980469 18.246094 209.058594 C 17.769531 216.628906 18.207031 223.640625 17.90625 230.867188 C 17.050781 230.960938 16.285156 231.042969 15.410156 231.140625 C 15.273438 230.402344 15.09375 229.871094 15.09375 229.339844 C 15.082031 225.347656 15.109375 221.355469 15.128906 217.367188 C 15.148438 214.300781 15.132812 211.238281 15.230469 208.171875 C 15.28125 206.589844 14.882812 205.363281 13.722656 204.191406 C 10.382812 200.835938 7.167969 197.351562 3.917969 193.902344 C 3.242188 193.1875 2.363281 192.546875 2.507812 191.070312 Z M 18.199219 193.753906 C 18.410156 193.839844 18.617188 193.921875 18.828125 194.011719 C 22.433594 189.710938 26.042969 185.414062 29.613281 181.164062 C 28.265625 179.152344 19.914062 170.347656 18.371094 169.359375 C 18.050781 177.582031 18.074219 185.664062 18.199219 193.753906 Z M 15.007812 171.25 C 14.8125 171.175781 14.613281 171.105469 14.417969 171.035156 C 11.359375 174.707031 8.296875 178.386719 5.296875 181.996094 C 7.113281 184.820312 13.34375 191.230469 15.097656 192.0625 C 15.109375 185.066406 15.339844 178.15625 15.007812 171.25 Z M 15.007812 171.25 " fill-opacity="1" fill-rule="nonzero"/><path fill="#fbf5be" d="M 23.144531 234.882812 C 23.433594 232.894531 23.855469 232.246094 24.835938 232.203125 C 25.644531 232.167969 26.257812 232.546875 26.636719 233.261719 C 27.023438 234.003906 26.820312 234.996094 26.140625 235.511719 C 24.957031 236.410156 24.109375 235.625 23.144531 234.882812 Z M 23.144531 234.882812 " fill-opacity="1" fill-rule="nonzero"/><path fill="#fbf5be" d="M 22.820312 151.796875 C 21.9375 151.78125 21.261719 151.109375 21.210938 150.203125 C 21.160156 149.269531 21.980469 148.445312 22.960938 148.441406 C 23.804688 148.441406 24.527344 149.15625 24.566406 150.035156 C 24.609375 151.003906 23.804688 151.804688 22.824219 151.789062 Z M 22.820312 151.796875 " fill-opacity="1" fill-rule="nonzero"/><path fill="#fbf5be" d="M 11.285156 234.757812 C 10.734375 235.949219 9.976562 236.617188 8.839844 236.070312 C 8.386719 235.851562 8.042969 235.082031 7.945312 234.515625 C 7.816406 233.773438 8.703125 232.898438 9.496094 232.859375 C 10.691406 232.796875 11.003906 233.683594 11.285156 234.757812 Z M 11.285156 234.757812 " fill-opacity="1" fill-rule="nonzero"/><path fill="#fbf5be" d="M 18.367188 234.570312 C 18.382812 235.289062 17.75 235.988281 17.023438 236.0625 C 16.117188 236.148438 15.214844 235.390625 15.117188 234.46875 C 15.035156 233.6875 15.773438 232.878906 16.613281 232.828125 C 17.46875 232.769531 18.347656 233.652344 18.367188 234.578125 Z M 18.367188 234.570312 " fill-opacity="1" fill-rule="nonzero"/><path fill="#fbf5be" d="M 11.640625 150.277344 C 11.640625 151.132812 10.898438 151.777344 9.980469 151.714844 C 9.199219 151.664062 8.632812 151.019531 8.683594 150.242188 C 8.738281 149.367188 9.464844 148.714844 10.339844 148.761719 C 11.0625 148.796875 11.632812 149.472656 11.640625 150.277344 Z M 11.640625 150.277344 " fill-opacity="1" fill-rule="nonzero"/><path fill="#fbf5be" d="M 17.859375 150.367188 C 17.859375 151.207031 17.199219 151.871094 16.304688 151.929688 C 15.519531 151.980469 14.917969 151.367188 14.992188 150.578125 C 15.066406 149.722656 15.738281 149.011719 16.53125 148.945312 C 17.199219 148.890625 17.859375 149.601562 17.859375 150.367188 Z M 17.859375 150.367188 " fill-opacity="1" fill-rule="nonzero"/></svg>