<svg xmlns="http://www.w3.org/2000/svg" version="1.1" viewBox="-5.0 -10.0 110.0 135.0">
 <path d="m46.875 44.531c0 1.4062 0.15625 2.6562 0.3125 3.9062h-13.75l15.781-15.781c-1.5625 3.75-2.3438 7.6562-2.3438 11.875zm-19.219 3.9062h-17.188l11.094-20.938zm-3.75-23.438h28.438l-21.875 22.031zm-12.812-6.25h46.719c0.9375 0 1.5625 0.625 1.5625 1.5625s-0.625 1.5625-1.5625 1.5625h-46.719c-0.9375 0-1.5625-0.625-1.5625-1.5625s0.625-1.5625 1.5625-1.5625zm0.15625 6.25h7.9688l-11.094 21.094c-0.15625-1.5625-0.3125-3.125-0.3125-4.6875 0-5.7812 1.25-11.25 3.4375-16.406zm32.5 54.688h-0.15625c-9.0625 0-17.656-3.5938-24.375-10.156-4.8438-4.8438-8.2812-11.094-10.156-17.969h38.594c2.6562 11.406 11.719 20.312 22.656 21.719v6.4062zm29.688 0v-6.25h3.125v6.25zm6.25 0v-6.25h6.25v6.25zm12.5 0c0 0.9375-0.625 1.5625-1.5625 1.5625s-1.5625-0.625-1.5625-1.5625v-6.25c0-0.9375 0.625-1.5625 1.5625-1.5625s1.5625 0.625 1.5625 1.5625z"/>
<text x="0.0" y="117.5" font-size="5.0" font-weight="bold" font-family="Arbeit Regular, Helvetica, Arial-Unicode, Arial, Sans-serif" fill="#000000">Created by Cahya Kurniawan</text><text x="0.0" y="122.5" font-size="5.0" font-weight="bold" font-family="Arbeit Regular, Helvetica, Arial-Unicode, Arial, Sans-serif" fill="#000000">from Noun Project</text></svg>